<svg id="Capa_1" enable-background="new 0 0 512 512" height="512" viewBox="0 0 512 512" width="512" xmlns="http://www.w3.org/2000/svg"><g><g><g><g><path d="m188.334 399.951 216.105-216.105c1.276-1.276 3.13-1.802 4.878-1.353 27.212 7.001 57.312-.157 78.619-21.464 20.572-20.572 27.952-49.324 22.15-75.763-.261-1.215-.904-2.311-1.804-3.162-2.49-2.356-6.475-2.109-8.898.314l-34.379 34.379c-1.301 1.301-3.198 1.81-4.976 1.333l-32.904-8.822c-1.777-.476-3.165-1.864-3.641-3.641l-8.822-32.904c-.477-1.778.032-3.675 1.333-4.976l34.558-34.558c1.115-1.115 1.869-2.589 1.906-4.165.073-3.085-2.137-5.77-4.921-6.348-26.45-5.813-55.201 1.567-75.774 22.139-21.307 21.307-28.455 51.417-21.454 78.629.45 1.748-.077 3.602-1.353 4.878l-216.106 216.108c-1.189 1.189-2.886 1.731-4.54 1.424-23.813-4.416-49.39 2.99-67.255 22.282-25.69 27.743-25.866 71.135-.382 99.066 28.369 31.093 76.591 31.925 106.022 2.494 17.745-17.745 24.47-42.316 20.212-65.257-.308-1.649.239-3.341 1.426-4.528zm-94.064 38.57c-11.377-11.377-11.367-29.821.011-41.198 11.377-11.377 29.81-11.377 41.188 0 11.377 11.377 11.388 29.821.011 41.198-11.378 11.378-29.832 11.378-41.21 0z" fill="#e0d3ce"/><path d="m487.939 161.034c-21.315 21.297-51.406 28.458-78.618 21.46-1.748-.449-3.601.077-4.877 1.353l-216.107 216.106c-1.186 1.186-1.733 2.877-1.428 4.526 4.25 22.943-2.469 47.511-20.216 65.261-28.626 28.621-75.015 28.614-103.638-.002-6.526-6.532-11.562-13.981-15.109-21.936 28.776 23.504 71.249 21.831 98.087-5.01 17.134-17.13 23.999-40.632 20.617-62.886-.491-3.228.618-6.493 2.927-8.802l212.14-212.132c2.492-2.492 6.083-3.563 9.524-2.796 26.52 5.912 55.403-1.453 76.037-22.091 11.952-11.941 19.432-26.651 22.486-42.057l9.792-9.784c2.443-2.444 6.416-2.46 8.85-.019.831.842 1.427 1.884 1.675 3.044 5.807 26.436-1.57 55.191-22.142 75.765z" fill="#b9acac"/></g><g><path d="m200.209 340.312c-1.978 0-3.955-.754-5.464-2.263-3.017-3.017-3.017-7.909 0-10.927l138.556-138.555c3.019-3.018 7.91-3.018 10.928 0 3.017 3.017 3.017 7.909 0 10.927l-138.556 138.555c-1.509 1.509-3.487 2.263-5.464 2.263z" fill="#fdc83a"/></g></g></g><g><g><path d="m494.379 461.37-20.042 20.042c-13.387 13.387-35.209 12.996-48.108-.862l-286.23-307.509 46.009-46.009 307.509 286.229c13.858 12.899 14.249 34.722.862 48.109z" fill="#d46a50"/><path d="m493.514 413.266-307.508-286.238-46.007 46.013 30.481 32.747 24.324-24.324 274.377 255.406c13.86 12.896 14.248 34.724.859 48.106l-.205.203c1.585-1.095 3.088-2.353 4.502-3.763l20.045-20.046c13.388-13.392 12.992-35.208-.868-48.104z" fill="#a64b35"/><path d="m235.203 41.603-24.603-12.977c-24.634-12.994-54.567-9.313-75.295 8.829l-.114-.114-76.543 76.543c-2.324 2.324-3.199 5.728-2.286 8.884 2.935 10.139.123 21.071-7.341 28.534l-5.139 5.139 50.21 50.21 5.139-5.139c7.463-7.463 18.396-10.276 28.534-7.341 3.157.914 6.56.038 8.884-2.286l70.166-70.166c3.522-3.522 3.522-9.231 0-12.753l-25.966-25.966c-4.704-4.704-4-12.616 1.574-16.247 8.308-5.413 17.764-8.946 27.709-10.265l22.953-3.045c6.1-.808 7.558-8.97 2.118-11.84z" fill="#e0d3ce"/><path d="m233.088 53.448-22.953 3.042c-4.14.543-8.188 1.481-12.108 2.78l-11.827-6.242c-24.636-12.992-54.57-9.309-75.292 8.828l-.116-.116 24.398-24.398.116.116c20.728-18.143 50.662-21.825 75.292-8.828l24.605 12.973c5.439 2.865 3.982 11.028-2.115 11.845z" fill="#b9acac"/><g><g><path d="m143.087 157.351c-1.978 0-3.955-.754-5.464-2.263-3.017-3.018-3.017-7.909 0-10.927l19.505-19.505c3.019-3.018 7.91-3.017 10.928 0 3.017 3.018 3.017 7.909 0 10.927l-19.505 19.505c-1.51 1.508-3.488 2.263-5.464 2.263z" fill="#b9acac"/></g></g></g><g><g><path d="m105.312 223.225-20.706 20.706c-8.804 8.804-23.078 8.804-31.883 0l-46.12-46.12c-8.804-8.804-8.804-23.078 0-31.883l20.706-20.706c3.522-3.522 9.231-3.522 12.753 0l65.249 65.249c3.522 3.523 3.522 9.232.001 12.754z" fill="#e0d3ce"/><path d="m40.061 145.225 65.251 65.251c3.518 3.518 3.524 9.23 0 12.754l-20.704 20.704c-.14.14-.287.287-.439.415 3.146-3.536 3.024-8.974-.366-12.364l-65.251-65.251c-3.396-3.396-8.828-3.512-12.364-.366.128-.152.274-.299.415-.439l20.704-20.704c3.524-3.524 9.23-3.524 12.754 0z" fill="#b9acac"/></g></g></g></g></svg>