<svg id="Icons" height="512" viewBox="0 0 60 60" width="512" xmlns="http://www.w3.org/2000/svg"><path d="m33 16.14v-10.14h26v33c0 2.761-5.82 5-13 5-1.033 0-2.037-.046-3-.134z" fill="#2d629b"/><path d="m27 16.14v-10.14h-26v33c0 2.761 5.82 5 13 5 1.033 0 2.037-.046 3-.134z" fill="#2d629b"/><ellipse cx="14" cy="6" fill="#3778c6" rx="13" ry="5"/><path d="m17 32.86c-.96.09-1.97.14-3 .14-7.18 0-13-2.24-13-5v-11c0 2.76 5.82 5 13 5 1.03 0 2.04-.05 3-.14z" fill="#3778c6"/><ellipse cx="46" cy="6" fill="#3778c6" rx="13" ry="5"/><path d="m59 28c0 2.76-5.82 5-13 5-1.03 0-2.04-.05-3-.14v-11c.96.09 1.97.14 3 .14 7.18 0 13-2.24 13-5z" fill="#3778c6"/><path d="m43 21v33c0 2.761-5.82 5-13 5s-13-2.239-13-5v-33z" fill="#2d629b"/><ellipse cx="30" cy="21" fill="#3778c6" rx="13" ry="5"/><path d="m17 43c0 2.761 5.82 5 13 5s13-2.239 13-5v-11c0 2.761-5.82 5-13 5s-13-2.239-13-5z" fill="#3778c6"/><g fill="#4b95ff"><path d="m25 32.617a.956.956 0 0 1 -.159-.013 24.262 24.262 0 0 1 -3.13-.7 1 1 0 1 1 .576-1.916 22.347 22.347 0 0 0 2.87.647 1 1 0 0 1 -.157 1.982z"/><path d="m30 33c-.347 0-.689-.005-1.029-.015a1 1 0 0 1 .028-2h.03c.641.02 1.3.02 1.942 0a1.038 1.038 0 0 1 1.029.971 1 1 0 0 1 -.971 1.029c-.34.01-.682.015-1.029.015z"/><path d="m35 32.617a1 1 0 0 1 -.157-1.987 22.347 22.347 0 0 0 2.87-.647 1 1 0 1 1 .576 1.916 24.262 24.262 0 0 1 -3.13.7.956.956 0 0 1 -.159.018z"/><path d="m25 43.617a.956.956 0 0 1 -.159-.013 24.262 24.262 0 0 1 -3.13-.7 1 1 0 1 1 .576-1.916 22.347 22.347 0 0 0 2.87.647 1 1 0 0 1 -.157 1.982z"/><path d="m30 44c-.347 0-.689-.005-1.029-.015a1 1 0 0 1 .028-2h.03c.641.02 1.3.02 1.942 0a1.039 1.039 0 0 1 1.029.971 1 1 0 0 1 -.971 1.029c-.34.015-.682.015-1.029.015z"/><path d="m35 43.617a1 1 0 0 1 -.157-1.987 22.347 22.347 0 0 0 2.87-.647 1 1 0 1 1 .576 1.916 24.262 24.262 0 0 1 -3.13.7.956.956 0 0 1 -.159.018z"/><path d="m25 54.617a.956.956 0 0 1 -.159-.013 24.262 24.262 0 0 1 -3.13-.7 1 1 0 1 1 .576-1.916 22.347 22.347 0 0 0 2.87.647 1 1 0 0 1 -.157 1.982z"/><path d="m30 55c-.347 0-.689-.005-1.029-.015a1 1 0 0 1 .028-2h.03c.641.02 1.3.02 1.942 0a1.041 1.041 0 0 1 1.029.971 1 1 0 0 1 -.971 1.029c-.34.015-.682.015-1.029.015z"/><path d="m35 54.617a1 1 0 0 1 -.157-1.987 22.347 22.347 0 0 0 2.87-.647 1 1 0 1 1 .576 1.916 24.262 24.262 0 0 1 -3.13.7.956.956 0 0 1 -.159.018z"/><path d="m9 17.617a.956.956 0 0 1 -.159-.013 24.262 24.262 0 0 1 -3.13-.7 1 1 0 1 1 .576-1.916 22.347 22.347 0 0 0 2.87.647 1 1 0 0 1 -.157 1.982z"/><path d="m14 18c-.347 0-.689 0-1.029-.015a1 1 0 0 1 .028-2h.03c.641.02 1.3.02 1.942 0a1.036 1.036 0 0 1 1.029.971 1 1 0 0 1 -.971 1.029c-.34.015-.682.015-1.029.015z"/><path d="m9 28.617a.956.956 0 0 1 -.159-.013 24.262 24.262 0 0 1 -3.13-.7 1 1 0 1 1 .576-1.916 22.347 22.347 0 0 0 2.87.647 1 1 0 0 1 -.157 1.982z"/><path d="m9 39.617a.956.956 0 0 1 -.159-.013 24.262 24.262 0 0 1 -3.13-.7 1 1 0 1 1 .576-1.916 22.347 22.347 0 0 0 2.87.647 1 1 0 0 1 -.157 1.982z"/><path d="m51 17.617a1 1 0 0 1 -.157-1.987 22.347 22.347 0 0 0 2.87-.647 1 1 0 0 1 .576 1.916 24.262 24.262 0 0 1 -3.13.7.956.956 0 0 1 -.159.018z"/><path d="m46 18c-.347 0-.689 0-1.029-.015a1 1 0 0 1 -.971-1.029 1.04 1.04 0 0 1 1.029-.971c.641.02 1.3.02 1.942 0h.029a1 1 0 0 1 .028 2c-.339.015-.681.015-1.028.015z"/><path d="m51 28.617a1 1 0 0 1 -.157-1.987 22.347 22.347 0 0 0 2.87-.647 1 1 0 0 1 .576 1.916 24.262 24.262 0 0 1 -3.13.7.956.956 0 0 1 -.159.018z"/><path d="m51 39.617a1 1 0 0 1 -.157-1.987 22.347 22.347 0 0 0 2.87-.647 1 1 0 0 1 .576 1.916 24.262 24.262 0 0 1 -3.13.7.956.956 0 0 1 -.159.018z"/></g></svg>