<svg viewBox="0 0 64 64" xmlns="http://www.w3.org/2000/svg" xmlns:xlink="http://www.w3.org/1999/xlink"><linearGradient id="linear-gradient" gradientUnits="userSpaceOnUse" x1="32" x2="32" y1="49.96" y2="39.96"><stop offset="0" stop-color="#54a5ff"/><stop offset="1" stop-color="#8ad3fe"/></linearGradient><linearGradient id="linear-gradient-2" gradientUnits="userSpaceOnUse" x1="32" x2="32" y1="39.96" y2="6.04"><stop offset="0" stop-color="#d3e6f5"/><stop offset="1" stop-color="#f0f7fc"/></linearGradient><linearGradient id="linear-gradient-3" x1="30" x2="34" xlink:href="#linear-gradient-2" y1="44.96" y2="44.96"/><linearGradient id="linear-gradient-4" x1="9" x2="55" xlink:href="#linear-gradient" y1="7" y2="7"/><linearGradient id="linear-gradient-5" x1="30" x2="51" xlink:href="#linear-gradient" y1="23.7" y2="23.7"/><g id="Web_development" data-name="Web development"><path d="m60 40v4a6 6 0 0 1 -6 6h-44a6 6 0 0 1 -6-6v-4z" fill="url(#linear-gradient)"/><path d="m60 12v28h-56v-28a6 6 0 0 1 5-6h46a6 6 0 0 1 5 6z" fill="url(#linear-gradient-2)"/><path d="m42.29 61.95h-20.58l4.12-12h12.34z" fill="#4795ea"/><path d="m44 62h-24a1 1 0 0 1 0-2h24a1 1 0 0 1 0 2z" fill="#0668cb"/><path d="m33 46h-2a1 1 0 0 1 0-2h2a1 1 0 0 1 0 2z" fill="url(#linear-gradient-3)"/><path d="m55 4v8h-46v-8a2 2 0 0 1 2-2h42a2 2 0 0 1 2 2z" fill="url(#linear-gradient-4)"/><path d="m55 12v21a2 2 0 0 1 -2 2h-42a2 2 0 0 1 -2-2v-21z" fill="#f0f7fc"/><path d="m49 9a2 2 0 1 1 2-2 2 2 0 0 1 -2 2z" fill="#d7e9f7"/><path d="m43 9a2 2 0 1 1 2-2 2 2 0 0 1 -2 2z" fill="#4795ea"/><path d="m37 9a2 2 0 1 1 2-2 2 2 0 0 1 -2 2z" fill="#eb7f58"/><path d="m31 8h-17a1 1 0 0 1 0-2h17a1 1 0 0 1 0 2z" fill="#4795ea"/><g fill="#b4cde1"><path d="m15 28a1 1 0 0 1 -.83-.45l-2-3a1 1 0 0 1 0-1.1l2-3a1 1 0 0 1 1.66 1.1l-1.63 2.45 1.63 2.45a1 1 0 0 1 -.28 1.38.94.94 0 0 1 -.55.17z"/><path d="m23 28a.94.94 0 0 1 -.55-.17 1 1 0 0 1 -.28-1.38l1.63-2.45-1.63-2.45a1 1 0 1 1 1.66-1.1l2 3a1 1 0 0 1 0 1.1l-2 3a1 1 0 0 1 -.83.45z"/><path d="m18 28.87a1.07 1.07 0 0 1 -.25 0 1 1 0 0 1 -.75-1.25l2-7.74a1 1 0 0 1 1.94.5l-2 7.74a1 1 0 0 1 -.94.75z"/></g><path d="m40 31h-8a2 2 0 0 1 -1.41-.59l3.68-3.68a2 2 0 0 1 3.08.3l.65.97z" fill="#4795ea"/><path d="m51 19v10a1.91 1.91 0 0 1 -.56 1.37l-5.9-6.63a2 2 0 0 0 -3 .05l-3.54 4.21-.65-1a2 2 0 0 0 -3.08-.3l-3.68 3.68a2 2 0 0 1 -.59-1.38v-10a2 2 0 0 1 2-2h17a2 2 0 0 1 2 2z" fill="url(#linear-gradient-5)"/><path d="m50.44 30.37a1.93 1.93 0 0 1 -1.44.63h-9l-2-3 3.51-4.21a2 2 0 0 1 3-.05z" fill="#4795ea"/><path d="m36 24a2 2 0 1 1 2-2 2 2 0 0 1 -2 2z" fill="#f0f7fc"/></g></svg>